<?xml version="1.0" standalone="no"?>
<!DOCTYPE svg PUBLIC "-//W3C//DTD SVG 20010904//EN"
 "http://www.w3.org/TR/2001/REC-SVG-20010904/DTD/svg10.dtd">
<svg version="1.0" xmlns="http://www.w3.org/2000/svg"
 width="128.000000pt" height="128.000000pt" viewBox="0 0 128.000000 128.000000"
 preserveAspectRatio="xMidYMid meet">
<metadata>
Created by potrace 1.11, written by Peter Selinger 2001-2013
</metadata>
<g transform="translate(0.000000,128.000000) scale(0.100000,-0.100000)"
fill="#000000" stroke="none">
<path d="M513 1155 c-191 -41 -359 -203 -413 -397 -19 -70 -22 -221 -6 -293
15 -66 79 -177 135 -238 235 -250 626 -239 847 24 42 50 90 145 109 219 19 73
17 209 -6 291 -37 133 -125 253 -237 322 -45 28 -128 64 -168 72 -60 13 -201
13 -261 0z m227 -107 c149 -38 279 -155 326 -293 23 -67 27 -202 8 -268 -55
-188 -239 -328 -434 -330 -189 -1 -379 143 -433 329 -18 62 -19 183 -2 238 48
159 171 280 324 321 41 11 172 13 211 3z"/>
<path d="M613 952 c-13 -2 -23 -9 -24 -15 0 -7 -2 -22 -3 -34 -3 -30 26 -56
67 -59 65 -6 104 -23 150 -68 117 -113 87 -301 -60 -377 -153 -80 -345 42
-338 214 3 57 27 127 45 127 6 0 9 4 5 9 -3 6 1 13 8 18 27 16 27 54 2 79 -21
21 -28 22 -52 13 -38 -14 -60 -40 -90 -107 -59 -132 -30 -292 71 -393 64 -63
135 -92 234 -95 45 -2 87 -6 94 -10 6 -4 8 -3 5 3 -8 12 14 23 44 23 10 0 19
4 19 9 0 12 56 31 66 23 4 -4 4 -2 1 4 -3 6 7 24 23 39 123 118 145 299 53
440 -37 59 -64 85 -113 112 -68 38 -146 55 -207 45z"/>
</g>
</svg>
